<svg xmlns="http://www.w3.org/2000/svg" xmlns:xlink="http://www.w3.org/1999/xlink" width="2304" zoomAndPan="magnify" viewBox="0 0 1728 72" height="96" preserveAspectRatio="xMidYMid meet" version="1.0"><defs><clipPath id="915acc8305"><path d="M 586.464844 0 L 1141.464844 0 L 1141.464844 72 L 586.464844 72 Z M 586.464844 0 " clip-rule="nonzero"/></clipPath></defs><g clip-path="url(#915acc8305)"><path fill="#ddae48" d="M 757.613281 12.144531 L 855.910156 12.144531 C 855.824219 12.988281 855.804688 13.84375 855.863281 14.699219 L 752.355469 14.699219 C 753.992188 13.636719 755.769531 12.78125 757.613281 12.144531 Z M 822.019531 71.996094 C 832.867188 67.148438 828.867188 60.035156 833.65625 53.578125 C 843.839844 48.230469 854.113281 41.519531 861.292969 34.371094 C 857.210938 40.375 851.445312 43.410156 848.648438 48.855469 C 847.457031 51.183594 847.132812 53.859375 848.164062 56.46875 C 849.125 58.902344 850.578125 60.417969 852.191406 61.238281 C 856.367188 63.441406 860.699219 61.550781 862.546875 58.515625 C 864.761719 54.875 862.617188 49.761719 858.1875 50.378906 C 856.628906 50.597656 855.1875 51.632812 854.679688 53.582031 C 860.902344 51.753906 859.605469 61.730469 853.523438 58.625 C 852.5 58.101562 851.554688 57.085938 850.886719 55.402344 C 850.191406 53.640625 850.425781 51.808594 851.253906 50.195312 C 853.28125 46.242188 859.597656 42.246094 864 35.503906 C 868.402344 42.246094 874.71875 46.242188 876.75 50.195312 C 877.578125 51.808594 877.8125 53.640625 877.117188 55.402344 C 876.449219 57.085938 875.5 58.101562 874.480469 58.625 C 868.398438 61.730469 867.097656 51.753906 873.324219 53.582031 C 872.816406 51.632812 871.375 50.597656 869.816406 50.378906 C 865.382812 49.761719 863.238281 54.875 865.457031 58.515625 C 867.304688 61.550781 871.632812 63.441406 875.8125 61.238281 C 877.421875 60.417969 878.878906 58.902344 879.839844 56.46875 C 880.871094 53.859375 880.546875 51.183594 879.351562 48.855469 C 876.558594 43.40625 870.789062 40.371094 866.703125 34.359375 C 873.882812 41.511719 884.160156 48.226562 894.347656 53.574219 C 899.136719 60.035156 895.136719 67.148438 905.980469 71.996094 C 903.082031 66.167969 905.8125 62.144531 902.71875 57.683594 C 909.917969 60.980469 916.605469 63.414062 921.546875 64.632812 C 930.503906 66.835938 940.183594 67.792969 949.328125 66.992188 C 957.585938 66.269531 965.425781 64.113281 971.941406 60.152344 C 977.082031 57.027344 981.046875 52.941406 983.878906 48.308594 L 983.960938 48.347656 C 984.140625 47.972656 984.324219 47.597656 984.507812 47.230469 C 984.882812 46.566406 985.238281 45.886719 985.566406 45.203125 C 991.898438 33.570312 999.441406 28.382812 1005.230469 26.082031 C 1014.359375 24.914062 1018.117188 33.414062 1029.03125 26.511719 C 1024.515625 25.945312 1022.160156 23.65625 1019.398438 22.234375 C 1012.71875 18.800781 1000.679688 24.617188 995.464844 28.777344 C 993.210938 30.578125 990.914062 32.820312 988.675781 35.625 C 992.898438 11.703125 966.785156 0.878906 950.53125 8.847656 L 950.460938 8.882812 C 949.730469 9.242188 949.027344 9.640625 948.339844 10.078125 C 948.207031 10.160156 948.078125 10.242188 947.945312 10.324219 L 953.789062 10.324219 C 969.75 4.535156 993.746094 17.007812 984.246094 41.601562 C 984 42.238281 983.734375 42.871094 983.449219 43.492188 C 982.917969 44.449219 982.394531 45.449219 981.882812 46.492188 C 981.324219 47.441406 980.710938 48.367188 980.050781 49.265625 C 985.398438 38.140625 977.246094 35.921875 977.144531 25.710938 C 967.023438 38.265625 977.375 44.027344 974.179688 55.371094 C 973.058594 56.269531 971.855469 57.113281 970.574219 57.894531 C 964.964844 61.300781 958.257812 63.296875 951.121094 64.140625 C 954.398438 62.476562 956.449219 59.9375 958.042969 55.902344 C 959.378906 52.519531 960.378906 51.039062 962.800781 48.359375 L 963.207031 47.910156 L 962.605469 47.960938 C 954.382812 48.667969 951.414062 49.769531 946.515625 56.609375 C 944.433594 59.515625 942.378906 62.414062 938.078125 64.480469 C 932.703125 64.167969 927.316406 63.328125 922.179688 62.0625 C 910.242188 59.121094 886.710938 48.296875 872.179688 35.796875 C 873.867188 36.890625 875.683594 37.957031 877.617188 38.980469 C 878.785156 39.714844 879.964844 40.351562 881.132812 40.820312 C 881.484375 40.960938 881.832031 41.09375 882.175781 41.214844 C 886.199219 43.03125 890.609375 44.644531 895.320312 45.957031 C 901.535156 47.683594 907.878906 48.800781 914.246094 49.285156 C 921.894531 53.105469 920.746094 61.6875 932.957031 61.714844 C 927.683594 57.359375 928.902344 52.296875 923.417969 49.550781 C 932.574219 49.375 941.683594 47.882812 950.433594 45.011719 C 949.023438 44.683594 947.640625 44.179688 946.3125 43.496094 C 929.992188 48.128906 912.53125 47.929688 896.042969 43.34375 C 894.386719 42.882812 892.726562 42.378906 891.078125 41.828125 C 892.765625 41.386719 894.46875 40.609375 896.292969 39.492188 C 899.5625 37.488281 901.34375 36.878906 905.078125 36.160156 L 905.703125 36.039062 L 905.164062 35.703125 C 897.796875 31.085938 894.601562 30.132812 886.144531 32.78125 C 882.679688 33.871094 879.238281 34.96875 874.574219 34.160156 C 874.210938 33.925781 873.84375 33.6875 873.484375 33.449219 C 876.621094 33.886719 880.109375 32.992188 882.195312 30.488281 C 884.699219 27.484375 884.535156 22.511719 881.222656 20.117188 C 878.96875 18.492188 875.847656 18.515625 874.109375 20.558594 C 871.023438 24.175781 874.847656 28.671875 877.328125 27.136719 C 877.890625 26.789062 878.261719 26.164062 878.261719 25.453125 C 878.261719 24.363281 877.378906 23.480469 876.289062 23.480469 C 875.742188 23.480469 875.25 23.703125 874.894531 24.058594 C 874.835938 20.984375 877.859375 20.28125 879.859375 21.804688 C 881.792969 23.273438 882.074219 26.363281 880.855469 28.375 C 879.074219 30.964844 875.886719 31.65625 872.964844 30.980469 C 869.949219 30.019531 867.148438 27.441406 865.335938 25.160156 C 868.144531 21.613281 870.078125 17.605469 870.3125 14.726562 C 870.851562 8.058594 866.851562 5.121094 864 0 C 861.148438 5.121094 857.148438 8.0625 857.691406 14.726562 C 857.925781 17.605469 859.859375 21.613281 862.667969 25.160156 C 860.855469 27.441406 858.050781 30.019531 855.035156 30.980469 C 852.117188 31.65625 848.929688 30.964844 847.144531 28.375 C 845.925781 26.363281 846.207031 23.273438 848.140625 21.804688 C 850.140625 20.28125 853.167969 20.984375 853.109375 24.058594 C 852.75 23.703125 852.257812 23.480469 851.710938 23.480469 C 850.621094 23.480469 849.738281 24.363281 849.738281 25.453125 C 849.738281 26.164062 850.113281 26.789062 850.671875 27.136719 C 853.15625 28.671875 856.976562 24.175781 853.894531 20.558594 C 852.15625 18.515625 849.03125 18.492188 846.777344 20.117188 C 843.464844 22.511719 843.300781 27.484375 845.804688 30.488281 C 847.894531 32.992188 851.382812 33.886719 854.519531 33.449219 C 854.160156 33.6875 853.796875 33.925781 853.429688 34.160156 C 848.765625 34.964844 845.324219 33.871094 841.855469 32.78125 C 833.402344 30.132812 830.207031 31.085938 822.839844 35.703125 L 822.296875 36.039062 L 822.925781 36.160156 C 826.660156 36.878906 828.441406 37.488281 831.710938 39.492188 C 833.535156 40.609375 835.238281 41.386719 836.925781 41.828125 C 835.277344 42.378906 833.617188 42.882812 831.960938 43.34375 C 815.46875 47.929688 798.011719 48.128906 781.691406 43.496094 C 780.363281 44.179688 778.980469 44.683594 777.570312 45.011719 C 786.320312 47.882812 795.425781 49.375 804.585938 49.550781 C 799.101562 52.296875 800.316406 57.359375 795.046875 61.714844 C 807.257812 61.6875 806.109375 53.105469 813.757812 49.285156 C 820.125 48.800781 826.46875 47.683594 832.679688 45.957031 C 837.394531 44.644531 841.804688 43.03125 845.824219 41.214844 C 846.167969 41.09375 846.515625 40.960938 846.871094 40.820312 C 848.039062 40.351562 849.214844 39.714844 850.386719 38.980469 C 852.316406 37.957031 854.132812 36.890625 855.820312 35.796875 C 841.292969 48.296875 817.761719 59.121094 805.824219 62.0625 C 800.683594 63.328125 795.300781 64.167969 789.925781 64.480469 C 785.625 62.414062 783.570312 59.515625 781.488281 56.609375 C 776.589844 49.769531 773.621094 48.667969 765.398438 47.960938 L 764.792969 47.910156 L 765.199219 48.359375 C 767.625 51.039062 768.625 52.519531 769.960938 55.902344 C 771.554688 59.9375 773.605469 62.476562 776.882812 64.140625 C 769.746094 63.296875 763.035156 61.300781 757.429688 57.894531 C 756.148438 57.113281 754.945312 56.269531 753.820312 55.371094 C 750.628906 44.027344 760.980469 38.265625 750.859375 25.710938 C 750.753906 35.921875 742.605469 38.140625 747.953125 49.265625 C 747.289062 48.367188 746.679688 47.441406 746.121094 46.492188 C 745.609375 45.449219 745.085938 44.453125 744.558594 43.5 C 744.269531 42.875 744.003906 42.242188 743.757812 41.601562 C 734.257812 17.007812 758.253906 4.535156 774.210938 10.324219 L 780.058594 10.324219 C 779.925781 10.242188 779.792969 10.160156 779.660156 10.078125 C 778.976562 9.640625 778.269531 9.242188 777.542969 8.882812 L 777.472656 8.847656 C 761.21875 0.878906 735.105469 11.703125 739.328125 35.625 C 737.089844 32.820312 734.792969 30.574219 732.539062 28.777344 C 727.324219 24.617188 715.285156 18.800781 708.605469 22.234375 C 705.839844 23.65625 703.484375 25.945312 698.96875 26.511719 C 709.886719 33.414062 713.640625 24.910156 722.773438 26.082031 C 728.5625 28.382812 736.105469 33.570312 742.4375 45.203125 C 742.765625 45.886719 743.121094 46.566406 743.496094 47.230469 C 743.679688 47.597656 743.859375 47.972656 744.042969 48.347656 L 744.125 48.308594 C 746.953125 52.941406 750.921875 57.027344 756.0625 60.152344 C 762.574219 64.113281 770.417969 66.269531 778.675781 66.992188 C 787.816406 67.792969 797.5 66.835938 806.457031 64.632812 C 811.398438 63.414062 818.082031 60.980469 825.285156 57.6875 C 822.191406 62.144531 824.921875 66.167969 822.019531 71.996094 Z M 572.214844 13.421875 L 576.699219 10.867188 C 578.425781 9.878906 580.40625 9.457031 581.8125 10.867188 C 582.1875 11.238281 582.460938 11.675781 582.636719 12.144531 L 745.101562 12.144531 C 744.988281 12.25 744.875 12.355469 744.761719 12.460938 C 743.996094 13.183594 743.292969 13.933594 742.648438 14.699219 L 582.636719 14.699219 C 582.460938 15.167969 582.1875 15.605469 581.8125 15.980469 C 580.40625 17.386719 578.425781 16.964844 576.699219 15.980469 Z M 700.128906 21.28125 C 697.71875 22.386719 695.59375 23.179688 693 23.835938 C 552.414062 23.835938 576.519531 21.28125 700.128906 21.28125 Z M 885.835938 39.898438 C 889.027344 40.40625 891.789062 39.65625 895.136719 37.605469 C 896.691406 36.652344 898.167969 35.785156 899.863281 35.148438 C 895.65625 33.101562 892.414062 33.179688 887.917969 34.542969 C 887.546875 34.65625 887.179688 34.769531 886.808594 34.886719 C 883.796875 35.832031 881.242188 36.535156 878.316406 36.359375 C 880.746094 37.679688 883.265625 38.855469 885.835938 39.898438 Z M 849.6875 36.359375 C 847.257812 37.679688 844.738281 38.855469 842.167969 39.898438 C 838.976562 40.40625 836.210938 39.65625 832.867188 37.605469 C 831.3125 36.652344 829.835938 35.785156 828.140625 35.148438 C 832.347656 33.101562 835.589844 33.179688 840.085938 34.542969 C 840.457031 34.65625 840.824219 34.769531 841.195312 34.886719 C 844.207031 35.832031 846.761719 36.539062 849.6875 36.359375 Z M 941.164062 16.519531 C 939.011719 19.289062 937.449219 22.28125 935.75 25.320312 C 933.421875 29.480469 930.484375 34.644531 926.699219 37.542969 C 922.792969 40.53125 916.738281 40.804688 913.828125 36.402344 C 911.710938 33.195312 913.375 29.765625 916.988281 28.878906 C 920.46875 28.023438 924.636719 30.167969 923.925781 35.335938 C 929.398438 28.402344 921.675781 22.707031 915.675781 25.027344 C 910.742188 26.933594 908.625 33.449219 911.570312 37.902344 C 915.355469 43.625 923.160156 43.667969 928.34375 39.695312 C 932.503906 36.507812 935.570312 31.195312 938.117188 26.648438 C 938.410156 26.128906 938.699219 25.605469 938.996094 25.085938 C 938.253906 36.003906 948.410156 45.183594 959.117188 41.578125 C 961.265625 40.855469 963.257812 39.519531 964.890625 37.464844 C 966.761719 35.117188 967.878906 32.179688 967.90625 29.339844 C 967.929688 26.675781 967.011719 24.097656 964.878906 22.128906 C 964.050781 21.363281 962.90625 20.5 961.628906 19.777344 C 960.550781 19.167969 959.367188 18.644531 958.1875 18.351562 C 955.78125 17.746094 953.984375 18.132812 952.980469 18.933594 C 952.441406 19.363281 952.101562 19.914062 951.96875 20.527344 C 951.839844 21.144531 951.921875 21.785156 952.238281 22.398438 C 952.824219 23.539062 954.304688 24.625 956.746094 25.058594 C 957.984375 25.28125 959.285156 25.316406 960.511719 25.226562 C 961.648438 25.140625 962.734375 24.945312 963.667969 24.6875 C 964.789062 26.011719 965.277344 27.636719 965.261719 29.316406 C 965.242188 31.566406 964.335938 33.914062 962.824219 35.816406 C 961.527344 37.449219 959.957031 38.503906 958.269531 39.070312 C 947.039062 42.847656 936.503906 29.539062 944.304688 17.667969 C 944.5625 17.273438 944.839844 16.886719 945.125 16.519531 Z M 782.878906 16.519531 C 783.164062 16.886719 783.4375 17.269531 783.699219 17.667969 C 791.496094 29.539062 780.964844 42.847656 769.734375 39.070312 C 768.042969 38.503906 766.476562 37.449219 765.179688 35.816406 C 763.667969 33.914062 762.761719 31.566406 762.742188 29.316406 C 762.726562 27.636719 763.214844 26.011719 764.335938 24.6875 C 765.269531 24.945312 766.355469 25.140625 767.492188 25.226562 C 768.71875 25.316406 770.019531 25.28125 771.257812 25.058594 C 773.699219 24.625 775.175781 23.539062 775.765625 22.398438 C 776.078125 21.785156 776.164062 21.144531 776.03125 20.527344 C 775.902344 19.914062 775.5625 19.363281 775.023438 18.933594 C 774.019531 18.132812 772.222656 17.746094 769.816406 18.351562 C 768.636719 18.644531 767.453125 19.167969 766.375 19.777344 C 765.097656 20.5 763.949219 21.363281 763.121094 22.128906 C 760.992188 24.097656 760.074219 26.675781 760.097656 29.339844 C 760.125 32.179688 761.242188 35.117188 763.109375 37.464844 C 764.746094 39.519531 766.738281 40.855469 768.886719 41.578125 C 779.589844 45.183594 789.75 36.003906 789.007812 25.085938 C 789.300781 25.605469 789.59375 26.128906 789.886719 26.648438 C 792.433594 31.195312 795.5 36.507812 799.660156 39.695312 C 804.84375 43.667969 812.648438 43.625 816.433594 37.902344 C 819.378906 33.449219 817.261719 26.933594 812.328125 25.027344 C 806.328125 22.707031 798.605469 28.402344 804.078125 35.335938 C 803.367188 30.167969 807.53125 28.023438 811.015625 28.878906 C 814.628906 29.765625 816.292969 33.195312 814.171875 36.402344 C 811.265625 40.804688 805.210938 40.53125 801.304688 37.542969 C 797.519531 34.644531 794.582031 29.480469 792.253906 25.320312 C 790.550781 22.28125 788.992188 19.289062 786.835938 16.519531 Z M 766.964844 22.515625 C 767.199219 22.363281 767.441406 22.21875 767.6875 22.078125 C 768.570312 21.578125 769.527344 21.152344 770.464844 20.917969 C 771.96875 20.542969 772.933594 20.660156 773.367188 21.007812 C 773.417969 21.046875 773.445312 21.074219 773.449219 21.085938 C 773.449219 21.09375 773.4375 21.128906 773.40625 21.183594 C 773.152344 21.679688 772.316406 22.1875 770.792969 22.457031 C 769.796875 22.636719 768.722656 22.664062 767.691406 22.585938 C 767.445312 22.566406 767.203125 22.542969 766.964844 22.515625 Z M 961.035156 22.515625 C 960.804688 22.363281 960.5625 22.21875 960.3125 22.078125 C 959.429688 21.578125 958.472656 21.152344 957.539062 20.917969 C 956.035156 20.542969 955.066406 20.660156 954.632812 21.007812 C 954.585938 21.046875 954.558594 21.074219 954.554688 21.085938 C 954.554688 21.09375 954.566406 21.128906 954.59375 21.183594 C 954.851562 21.679688 955.6875 22.1875 957.210938 22.457031 C 958.207031 22.636719 959.28125 22.664062 960.3125 22.585938 C 960.558594 22.566406 960.800781 22.542969 961.035156 22.515625 Z M 941.640625 64.386719 C 943.363281 64.246094 945.09375 63.992188 946.757812 63.539062 C 951.746094 62.191406 954.199219 59.914062 956.089844 55.132812 C 956.722656 53.519531 957.347656 52.019531 958.269531 50.570312 C 953.910156 51.421875 951.496094 53.332031 948.863281 56.929688 C 948.648438 57.226562 948.433594 57.527344 948.21875 57.824219 C 946.242188 60.589844 944.535156 62.78125 941.640625 64.386719 Z M 864 22.007812 C 861.523438 17.96875 860.78125 12.125 864 7.808594 C 867.21875 12.125 866.480469 17.96875 864 22.007812 Z M 786.363281 64.386719 C 784.636719 64.246094 782.910156 63.992188 781.246094 63.539062 C 776.257812 62.191406 773.800781 59.914062 771.914062 55.132812 C 771.277344 53.519531 770.65625 52.019531 769.734375 50.570312 C 774.09375 51.421875 776.507812 53.332031 779.136719 56.929688 C 779.355469 57.226562 779.570312 57.527344 779.78125 57.824219 C 781.761719 60.589844 783.46875 62.78125 786.363281 64.386719 Z M 1155.785156 13.421875 L 1151.300781 10.867188 C 1149.574219 9.878906 1147.59375 9.457031 1146.1875 10.867188 C 1145.8125 11.238281 1145.539062 11.675781 1145.363281 12.144531 L 982.898438 12.144531 C 983.011719 12.25 983.125 12.355469 983.238281 12.460938 C 984.003906 13.183594 984.707031 13.933594 985.351562 14.699219 L 1145.363281 14.699219 C 1145.539062 15.167969 1145.8125 15.605469 1146.1875 15.980469 C 1147.59375 17.386719 1149.574219 16.964844 1151.300781 15.980469 Z M 1027.871094 21.28125 C 1030.28125 22.386719 1032.40625 23.179688 1035 23.835938 C 1175.585938 23.835938 1151.480469 21.28125 1027.871094 21.28125 Z M 872.089844 12.144531 L 970.375 12.144531 C 972.238281 12.789062 974.019531 13.644531 975.644531 14.699219 L 872.136719 14.699219 C 872.195312 13.84375 872.179688 12.988281 872.089844 12.144531 Z M 872.089844 12.144531 " fill-opacity="1" fill-rule="evenodd"/></g></svg>